<?xml version="1.0" encoding="UTF-8" standalone="no"?> <svg xmlns="http://www.w3.org/2000/svg" viewBox="0 0 64 64"><g id="_02-Courthouse" data-name="02-Courthouse"><path d="M62,59v2a1,1,0,0,1-1,1H3a1,1,0,0,1-1-1V59a1,1,0,0,1,1-1H61A1,1,0,0,1,62,59ZM4,53v3H60V53a1,1,0,0,0-1-1H5A1,1,0,0,0,4,53ZM62,14v5a1,1,0,0,1-1,1H3a1,1,0,0,1-1-1V14a1,1,0,0,1,.64551-.93506l29-11a.99652.99652,0,0,1,.709,0l29,11A1,1,0,0,1,62,14ZM36,12a4,4,0,1,0-4,4A4.00458,4.00458,0,0,0,36,12Zm-4-2a2,2,0,1,0,2,2A2.002,2.002,0,0,0,32,10ZM6,49v1H22V49a1,1,0,0,0-1-1H7A1,1,0,0,0,6,49Zm36,0v1H58V49a1,1,0,0,0-1-1H43A1,1,0,0,0,42,49ZM24,49v1H40V49a1,1,0,0,0-1-1H25A1,1,0,0,0,24,49ZM20,22H8v1a1,1,0,0,0,1,1H19a1,1,0,0,0,1-1Zm36,0H44v1a1,1,0,0,0,1,1H55a1,1,0,0,0,1-1ZM38,22H26v1a1,1,0,0,0,1,1H37a1,1,0,0,0,1-1ZM9.76,26,8.22,46H19.78L18.24,26Zm18,0L26.22,46H37.78L36.24,26Zm18,0L44.22,46H55.78L54.24,26Z"/></g></svg>