<svg xmlns="http://www.w3.org/2000/svg" xml:space="preserve" width="180.622mm" height="180.622mm" version="1.1" style="shape-rendering:geometricPrecision; text-rendering:geometricPrecision; image-rendering:optimizeQuality; fill-rule:evenodd; clip-rule:evenodd" viewBox="0 0 18062 18062" xmlns:xlink="http://www.w3.org/1999/xlink">
 <defs>
  <style type="text/css">
   
    .fil0 {fill:black}
   
  </style>
 </defs>
 <g id="Layer_x0020_1">
  <metadata id="CorelCorpID_0Corel-Layer"></metadata>
  <path class="fil0" d="M9899 15965c0,-4 1,-8 1,-10l0 -793c0,-432 -356,-787 -788,-787l-8070 0c-432,0 -788,355 -788,787l0 793c0,6 4,10 10,10l9635 0z" id="id_101" style="fill: rgb(255, 255, 255);"></path>
  <path class="fil0" d="M1335 13901l0 -411c0,-631 514,-1159 1159,-1159l5151 0c630,0 1159,513 1159,1159l0 411 -7469 0z" id="id_102" style="fill: rgb(255, 255, 255);"></path>
  <path class="fil0" d="M15729 14752c-14,0 -14,0 -29,0 -191,-15 -367,-88 -484,-235l-462 -515 2539 -2560 534 478c147,132 221,308 235,499 0,205 -73,411 -220,557l-1570 1556c-147,146 -352,220 -543,220zm-1322 -1137l-3742 -4175 2072 -2072 4169 3727 -2499 2520zm-4089 -4562l-317 -354 2004 -1986 345 308 -2032 2032z" id="id_103" style="fill: rgb(255, 255, 255);"></path>
  <path class="fil0" d="M6825 5992l2446 -2436c48,72 103,141 167,205l2245 2230c64,64 133,120 207,167l-2458 2438c-47,-69 -100,-135 -161,-195l-2245 -2245c-62,-63 -130,-117 -201,-164z" id="id_104" style="fill: rgb(255, 255, 255);"></path>
  <path class="fil0" d="M6133 6770c-73,0 -161,29 -220,88l-191 205c-117,117 -117,308 0,426l2231 2230c117,117 308,117 425,0l191 -206c0,0 0,0 15,-14 58,-59 88,-118 88,-191 0,-73 -30,-161 -88,-220l-2245 -2245c-59,-59 -132,-73 -206,-73z" id="id_105" style="fill: rgb(255, 255, 255);"></path>
  <path class="fil0" d="M8173 10306c-206,0 -411,-74 -572,-220l-2245 -2245c-309,-323 -309,-837 0,-1145l190 -205c323,-308 837,-308 1145,0l2245 2245c161,161 249,367 234,587 0,205 -88,411 -234,557l-191 206c-161,146 -367,220 -572,220z" id="id_106" style="fill: rgb(255, 255, 255);"></path>
  <polygon class="fil0" points="13176,5273 13176,5273 " id="id_107" style="fill: rgb(255, 255, 255);"></polygon>
  <path class="fil0" d="M10550 2353c-74,0 -162,29 -220,88l-191 191c-117,117 -117,308 0,425l2230 2245c118,118 308,118 426,0l205 -205c59,-59 88,-132 88,-220 0,-73 -29,-147 -88,-191l-2245 -2259c-59,-59 -132,-74 -205,-74z" id="id_108" style="fill: rgb(255, 255, 255);"></path>
  <path class="fil0" d="M12589 5889c-205,0 -411,-73 -572,-234l-2245 -2231c-308,-323 -308,-836 0,-1144l191 -206c323,-308 836,-308 1144,0l2245 2245c147,147 235,338 235,558 0,220 -88,425 -235,587l0 0 -205 205c-147,147 -352,220 -558,220z" id="id_109" style="fill: rgb(255, 255, 255);"></path>
 </g>
</svg>